# xmcd
#
# Track frame offsets:
#	150
#	30009
#	42749
#	59553
#	75030
#	109566
#	119685
#	152571
#	175842
#	238558
#	278825
#	306456
#
# Disc length: 4750 seconds
# Revision: 0
# Processed by: cddbd v1.5.2PL0 Copyright (c) Steve Scherf et al.
# Submitted via: dBpowerAMP V12.0
#
DISCID=94128c0c
DTITLE=Virgil and The Accelerators - Live at Marshall 31/8/12
DYEAR=2013
DGENRE=Blues
TTITLE0=Working Man
TTITLE1=Bad Girl
TTITLE2=Backstabber
TTITLE3=Refuse to Believe
TTITLE4=Racing with Life - Chameleon
TTITLE5=Scuttle Buttin'
TTITLE6=What? Am I to Do
TTITLE7=88
TTITLE8=Don't Shake My Hand
TTITLE9=Low Down and Dirty
TTITLE10=Fell to the Floor
TTITLE11=Silver Giver
EXTD=
EXTT0=
EXTT1=
EXTT2=
EXTT3=
EXTT4=
EXTT5=
EXTT6=
EXTT7=
EXTT8=
EXTT9=
EXTT10=
EXTT11=
PLAYORDER=
